# xmcd
# 
# Track frame offsets:
#     150
#     21150
#     40200
#     60075
#     72000
#     86062
#     104400
#     125100
#     145762
#     163650
# 
# Disc length: 2399
# 
# Revision: 2
# Processed by: cddbd v1.5.2PL0 Copyright (c) Steve Scherf et al.
# Submitted via: BonkEnc v1.0.8
# 
DISCID=83095d0a
DTITLE=Jazz Express - The Songs Of Madonna
DYEAR=1992
DGENRE=Fusion
TTITLE0=Crazy For You
TTITLE1=Vogue
TTITLE2=Like A Virgin
TTITLE3=La Isla Bonita
TTITLE4=Into The Groove
TTITLE5=Pretender
TTITLE6=Stay
TTITLE7=Lucky Star
TTITLE8=Angel
TTITLE9=Material Girl
EXTD=
EXTT0=
EXTT1=
EXTT2=
EXTT3=
EXTT4=
EXTT5=
EXTT6=
EXTT7=
EXTT8=
EXTT9=
PLAYORDER=
